<svg xmlns="http://www.w3.org/2000/svg"  viewBox="0 0 64 64" width="64px" height="64px"><path fill="#58b5e8" d="M13,7h38c3.314,0,6,2.686,6,6v38c0,3.314-2.686,6-6,6H13c-3.314,0-6-2.686-6-6V13 C7,9.686,9.686,7,13,7z"/><path fill="#65c5ef" d="M11,7h42c2.209,0,4,1.791,4,4l0,0c0,1.657-1.343,3-3,3H10c-1.657,0-3-1.343-3-3l0,0 C7,8.791,8.791,7,11,7z"/><path fill="#8d6c9f" d="M51,6H13c-3.866,0-7,3.134-7,7v38c0,3.866,3.134,7,7,7h38c3.866,0,7-3.134,7-7V13 C58,9.134,54.866,6,51,6z M56,51c0,2.761-2.239,5-5,5H13c-2.761,0-5-2.239-5-5V13c0-2.761,2.239-5,5-5h38c2.761,0,5,2.239,5,5V51z"/><g><path fill="#faefde" stroke="#8d6c9f" stroke-linecap="round" stroke-linejoin="round" stroke-miterlimit="10" stroke-width="2" d="M19.5,19c-1.933,0-3.5,1.567-3.5,3.5s1.567,3.5,3.5,3.5s3.5-1.567,3.5-3.5S21.433,19,19.5,19z M41.053,28 c-3.16,0-6.293,1.78-7.483,2.79v-1.33c0-0.552-0.448-1-1-1h-5.09c-0.552,0-1,0.448-1,1v21c0,0.552,0.448,1,1,1h5.4 c0.552,0,1-0.448,1-1V39.88c0-3.16,1.78-5.34,3.89-5.34s3.37,2.39,3.37,5.51v10.43c0,0.552,0.448,1,1,1h5.4c0.552,0,1-0.448,1-1 V38.277C48.54,33.011,46.383,28,41.053,28z M16,29h7v22h-7V29z"/></g><g><line x1="12.016" x2="12.016" y1="13.021" y2="15.021" fill="none" stroke="#8d6c9f" stroke-linecap="round" stroke-linejoin="round" stroke-miterlimit="10" stroke-width="2"/><line x1="17.009" x2="17.009" y1="13.021" y2="15.021" fill="none" stroke="#8d6c9f" stroke-linecap="round" stroke-linejoin="round" stroke-miterlimit="10" stroke-width="2"/><line x1="22.003" x2="22.003" y1="13.021" y2="15.021" fill="none" stroke="#8d6c9f" stroke-linecap="round" stroke-linejoin="round" stroke-miterlimit="10" stroke-width="2"/><line x1="26.996" x2="26.996" y1="13.021" y2="15.021" fill="none" stroke="#8d6c9f" stroke-linecap="round" stroke-linejoin="round" stroke-miterlimit="10" stroke-width="2"/><line x1="31.989" x2="31.989" y1="13.021" y2="15.021" fill="none" stroke="#8d6c9f" stroke-linecap="round" stroke-linejoin="round" stroke-miterlimit="10" stroke-width="2"/><line x1="36.983" x2="36.983" y1="13.021" y2="15.021" fill="none" stroke="#8d6c9f" stroke-linecap="round" stroke-linejoin="round" stroke-miterlimit="10" stroke-width="2"/><line x1="41.976" x2="41.976" y1="13.021" y2="15.021" fill="none" stroke="#8d6c9f" stroke-linecap="round" stroke-linejoin="round" stroke-miterlimit="10" stroke-width="2"/><line x1="46.969" x2="46.969" y1="13.021" y2="15.021" fill="none" stroke="#8d6c9f" stroke-linecap="round" stroke-linejoin="round" stroke-miterlimit="10" stroke-width="2"/><line x1="51.963" x2="51.963" y1="13.021" y2="15.021" fill="none" stroke="#8d6c9f" stroke-linecap="round" stroke-linejoin="round" stroke-miterlimit="10" stroke-width="2"/></g></svg>