<svg xmlns="http://www.w3.org/2000/svg"  viewBox="0 0 64 64" width="64px" height="64px"><path fill="#85cbf8" d="M13,7h38c3.314,0,6,2.686,6,6v38c0,3.314-2.686,6-6,6H13c-3.314,0-6-2.686-6-6V13 C7,9.686,9.686,7,13,7z"/><path fill="#9fddff" d="M11,7h42c2.209,0,4,1.791,4,4l0,0c0,1.657-1.343,3-3,3H10c-1.657,0-3-1.343-3-3l0,0 C7,8.791,8.791,7,11,7z"/><path fill="#8d6c9f" d="M51,6H13c-3.866,0-7,3.134-7,7v38c0,3.866,3.134,7,7,7h38c3.866,0,7-3.134,7-7V13 C58,9.134,54.866,6,51,6z M56,51c0,2.761-2.239,5-5,5H13c-2.761,0-5-2.239-5-5V13c0-2.761,2.239-5,5-5h38c2.761,0,5,2.239,5,5V51z"/><path fill="#faefde" stroke="#8d6c9f" stroke-linecap="round" stroke-linejoin="round" stroke-miterlimit="10" stroke-width="2" d="M26.117,43.207c-3.351,2.777-7.324,2.92-10.149,2.824c2.489,2.25,13.787,5.888,22.213-0.479s8.282-14.984,8.234-17.138 c1.293-0.527,3.447-3.399,3.447-3.399s-1.628,0.766-3.83,0.91c0.814-0.383,2.202-1.915,2.681-3.638 c-2.154,1.436-4.5,1.404-4.5,1.404s-2.774-3.344-7.755-1.309c-4.372,1.787-3.926,6.702-3.878,7.755 C32.723,35.66,29.085,40.638,26.117,43.207z"/><g><path fill="#faefde" d="M27.266,43.989c-2.585-0.287-6.176-2.553-7.468-5.713c1.628,0.287,3.064-0.048,3.064-0.048 s-5.122-1.101-5.553-6.846c0.766,0.383,3.016,0.766,3.016,0.766s-4.739-3.973-1.963-9.144c1.436,2.011,8.441,7.181,15.383,7.229 C35.342,36.079,33.891,41.407,27.266,43.989z"/><path fill="none" stroke="#8d6c9f" stroke-linecap="round" stroke-linejoin="round" stroke-miterlimit="10" stroke-width="2" d="M26.117,43.207c-2.585-0.287-5.027-1.771-6.319-4.931c1.628,0.287,3.064-0.048,3.064-0.048s-5.122-1.101-5.553-6.846 c0.766,0.383,3.016,0.766,3.016,0.766s-4.739-3.973-1.963-9.144c1.436,2.011,7.277,7.085,14.218,7.133"/></g><g><line x1="11.91" x2="11.91" y1="12.957" y2="14.957" fill="none" stroke="#8d6c9f" stroke-linecap="round" stroke-linejoin="round" stroke-miterlimit="10" stroke-width="2"/><line x1="16.93" x2="16.93" y1="12.957" y2="14.957" fill="none" stroke="#8d6c9f" stroke-linecap="round" stroke-linejoin="round" stroke-miterlimit="10" stroke-width="2"/><line x1="21.949" x2="21.949" y1="12.957" y2="14.957" fill="none" stroke="#8d6c9f" stroke-linecap="round" stroke-linejoin="round" stroke-miterlimit="10" stroke-width="2"/><line x1="26.969" x2="26.969" y1="12.957" y2="14.957" fill="none" stroke="#8d6c9f" stroke-linecap="round" stroke-linejoin="round" stroke-miterlimit="10" stroke-width="2"/><line x1="31.989" x2="31.989" y1="12.957" y2="14.957" fill="none" stroke="#8d6c9f" stroke-linecap="round" stroke-linejoin="round" stroke-miterlimit="10" stroke-width="2"/><line x1="37.009" x2="37.009" y1="12.957" y2="14.957" fill="none" stroke="#8d6c9f" stroke-linecap="round" stroke-linejoin="round" stroke-miterlimit="10" stroke-width="2"/><line x1="42.029" x2="42.029" y1="12.957" y2="14.957" fill="none" stroke="#8d6c9f" stroke-linecap="round" stroke-linejoin="round" stroke-miterlimit="10" stroke-width="2"/><line x1="47.049" x2="47.049" y1="12.957" y2="14.957" fill="none" stroke="#8d6c9f" stroke-linecap="round" stroke-linejoin="round" stroke-miterlimit="10" stroke-width="2"/><line x1="52.069" x2="52.069" y1="12.957" y2="14.957" fill="none" stroke="#8d6c9f" stroke-linecap="round" stroke-linejoin="round" stroke-miterlimit="10" stroke-width="2"/></g></svg>