<svg xmlns="http://www.w3.org/2000/svg"  viewBox="0 0 64 64" width="64px" height="64px"><path fill="#ed7899" d="M59.921,17.502c-0.561-3.923-3.703-6.968-7.64-7.405l-3.083-0.343 c-11.412-1.268-22.985-1.268-34.396,0l-3.083,0.343c-3.937,0.437-7.079,3.482-7.64,7.405c-1.377,9.639-1.436,19.421-0.178,29.073 L4.14,48.4c0.519,3.979,3.666,7.067,7.654,7.511l3.007,0.334c5.706,0.634,11.452,0.95,17.198,0.95s11.493-0.316,17.198-0.95 l3.007-0.334c3.988-0.444,7.136-3.532,7.654-7.51l0.239-1.827C61.357,36.923,61.298,27.141,59.921,17.502z"/><path fill="#e0678f" d="M8.025,50c-1.762,0-2.686,2.135-1.448,3.388c1.359,1.376,3.178,2.296,5.217,2.523l3.007,0.334 c5.706,0.634,11.452,0.95,17.198,0.95s11.493-0.316,17.198-0.95l3.007-0.334c2.04-0.227,3.858-1.147,5.218-2.523 C58.661,52.135,57.737,50,55.975,50H8.025z"/><path fill="#f283a5" d="M55.975,16.196c1.762,0,2.686-2.135,1.448-3.388c-1.359-1.376-3.178-2.296-5.217-2.523L49.198,9.95 C43.492,9.316,37.746,9,32,9S20.508,9.316,14.802,9.95l-3.007,0.334c-2.04,0.227-3.858,1.147-5.218,2.523 c-1.238,1.253-0.313,3.388,1.448,3.388L55.975,16.196L55.975,16.196z"/><path fill="none" stroke="#8d6c9f" stroke-miterlimit="10" stroke-width="2" d="M59.921,17.502 c-0.561-3.923-3.703-6.968-7.64-7.405l-3.083-0.343c-11.412-1.268-22.985-1.268-34.396,0l-3.083,0.343 c-3.937,0.437-7.079,3.482-7.64,7.405c-1.377,9.639-1.436,19.421-0.178,29.073L4.14,48.4c0.519,3.979,3.666,7.067,7.654,7.511 l3.007,0.334c5.706,0.634,11.452,0.95,17.198,0.95s11.493-0.316,17.198-0.95l3.007-0.334c3.988-0.444,7.136-3.532,7.654-7.51 l0.239-1.827C61.357,36.923,61.298,27.141,59.921,17.502z"/><g><path fill="#faefde" stroke="#8d6c9f" stroke-linejoin="round" stroke-miterlimit="10" stroke-width="2" d="M25.471,41.896 L25.469,24l16.279,8.975L25.471,41.896z"/></g><g><line x1="9" x2="9" y1="15" y2="17" fill="none" stroke="#8d6c9f" stroke-linecap="round" stroke-linejoin="round" stroke-miterlimit="10" stroke-width="2"/><line x1="14" x2="14" y1="15" y2="17" fill="none" stroke="#8d6c9f" stroke-linecap="round" stroke-linejoin="round" stroke-miterlimit="10" stroke-width="2"/><line x1="19" x2="19" y1="15" y2="17" fill="none" stroke="#8d6c9f" stroke-linecap="round" stroke-linejoin="round" stroke-miterlimit="10" stroke-width="2"/><line x1="24" x2="24" y1="15" y2="17" fill="none" stroke="#8d6c9f" stroke-linecap="round" stroke-linejoin="round" stroke-miterlimit="10" stroke-width="2"/><line x1="29" x2="29" y1="15" y2="17" fill="none" stroke="#8d6c9f" stroke-linecap="round" stroke-linejoin="round" stroke-miterlimit="10" stroke-width="2"/><line x1="34" x2="34" y1="15" y2="17" fill="none" stroke="#8d6c9f" stroke-linecap="round" stroke-linejoin="round" stroke-miterlimit="10" stroke-width="2"/><line x1="39" x2="39" y1="15" y2="17" fill="none" stroke="#8d6c9f" stroke-linecap="round" stroke-linejoin="round" stroke-miterlimit="10" stroke-width="2"/><line x1="44" x2="44" y1="15" y2="17" fill="none" stroke="#8d6c9f" stroke-linecap="round" stroke-linejoin="round" stroke-miterlimit="10" stroke-width="2"/><line x1="49" x2="49" y1="15" y2="17" fill="none" stroke="#8d6c9f" stroke-linecap="round" stroke-linejoin="round" stroke-miterlimit="10" stroke-width="2"/><line x1="54" x2="54" y1="15" y2="17" fill="none" stroke="#8d6c9f" stroke-linecap="round" stroke-linejoin="round" stroke-miterlimit="10" stroke-width="2"/><g><line x1="9" x2="9" y1="49" y2="51" fill="none" stroke="#8d6c9f" stroke-linecap="round" stroke-linejoin="round" stroke-miterlimit="10" stroke-width="2"/><line x1="14" x2="14" y1="49" y2="51" fill="none" stroke="#8d6c9f" stroke-linecap="round" stroke-linejoin="round" stroke-miterlimit="10" stroke-width="2"/><line x1="19" x2="19" y1="49" y2="51" fill="none" stroke="#8d6c9f" stroke-linecap="round" stroke-linejoin="round" stroke-miterlimit="10" stroke-width="2"/><line x1="24" x2="24" y1="49" y2="51" fill="none" stroke="#8d6c9f" stroke-linecap="round" stroke-linejoin="round" stroke-miterlimit="10" stroke-width="2"/><line x1="29" x2="29" y1="49" y2="51" fill="none" stroke="#8d6c9f" stroke-linecap="round" stroke-linejoin="round" stroke-miterlimit="10" stroke-width="2"/><line x1="34" x2="34" y1="49" y2="51" fill="none" stroke="#8d6c9f" stroke-linecap="round" stroke-linejoin="round" stroke-miterlimit="10" stroke-width="2"/><line x1="39" x2="39" y1="49" y2="51" fill="none" stroke="#8d6c9f" stroke-linecap="round" stroke-linejoin="round" stroke-miterlimit="10" stroke-width="2"/><line x1="44" x2="44" y1="49" y2="51" fill="none" stroke="#8d6c9f" stroke-linecap="round" stroke-linejoin="round" stroke-miterlimit="10" stroke-width="2"/><line x1="49" x2="49" y1="49" y2="51" fill="none" stroke="#8d6c9f" stroke-linecap="round" stroke-linejoin="round" stroke-miterlimit="10" stroke-width="2"/><line x1="54" x2="54" y1="49" y2="51" fill="none" stroke="#8d6c9f" stroke-linecap="round" stroke-linejoin="round" stroke-miterlimit="10" stroke-width="2"/></g></g></svg>